<?xml version="1.0" standalone="no"?>
<!DOCTYPE svg PUBLIC "-//W3C//DTD SVG 20010904//EN"
 "http://www.w3.org/TR/2001/REC-SVG-20010904/DTD/svg10.dtd">
<svg version="1.0" xmlns="http://www.w3.org/2000/svg"
 width="48.000000pt" height="48.000000pt" viewBox="0 0 48.000000 48.000000"
 preserveAspectRatio="xMidYMid meet">
<metadata>
Created by potrace 1.13, written by Peter Selinger 2001-2015
</metadata>
<g transform="translate(0.000000,48.000000) scale(0.100000,-0.100000)"
fill="#000000" stroke="none">
<path d="M84 375 c-12 -30 7 -35 150 -35 143 0 171 6 159 36 -8 21 -301 20
-309 -1z"/>
<path d="M93 293 c-23 -9 -16 -112 11 -169 33 -71 55 -84 141 -84 112 0 142
34 152 176 l6 84 -25 0 c-27 0 -38 -27 -38 -96 0 -71 -44 -134 -92 -134 -66 0
-86 29 -103 145 -11 79 -19 92 -52 78z"/>
</g>
</svg>
